<svg width="64" height="64" viewBox="0 0 64 64" fill="none" xmlns="http://www.w3.org/2000/svg">
<path d="M17.7778 17.7776C14.8323 17.7776 12.4444 20.1654 12.4444 23.1109V51.5554C12.4444 54.5009 14.8323 56.8887 17.7778 56.8887H46.2222C49.1677 56.8887 51.5556 54.5009 51.5556 51.5554V23.1109C51.5556 20.1654 49.1677 17.7776 46.2222 17.7776H17.7778Z" fill="#00ED64"/>
<path fill-rule="evenodd" clip-rule="evenodd" d="M12 23.1109C12 19.92 14.5868 17.3332 17.7778 17.3332H31.1111V6.6665H32V17.3332H46.2222C49.4132 17.3332 52 19.92 52 23.1109V51.5554C52 54.7464 49.4132 57.3332 46.2222 57.3332H17.7778C14.5868 57.3332 12 54.7464 12 51.5554V23.1109ZM32 18.2221H46.2222C48.9223 18.2221 51.1111 20.4109 51.1111 23.1109V51.5554C51.1111 54.2554 48.9223 56.4443 46.2222 56.4443H17.7778C15.0777 56.4443 12.8889 54.2554 12.8889 51.5554V23.1109C12.8889 20.4109 15.0777 18.2221 17.7778 18.2221H31.1111L31.1111 43.8715C31.0808 43.8445 31.055 43.814 31.0339 43.7806L31.0107 43.7438L22.5449 34.8053L21.8995 35.4166L30.3085 44.2951C30.5081 44.5879 30.7988 44.7658 31.1111 44.8432V44.8887H32V44.8095C32.2837 44.7207 32.5538 44.5578 32.7757 44.3235L41.2116 35.4166L40.5662 34.8053L32.1303 43.7123C32.0894 43.7555 32.0456 43.7937 32 43.8269L32 18.2221Z" fill="#001E2B"/>
</svg>
